<svg id="Layer_1" data-name="Layer 1" xmlns="http://www.w3.org/2000/svg" viewBox="0 0 189.61 148.08"><path d="M59.91,50.85H87.65v5.6H65.46v18H87.65v5.6H65.46v28.24H59.91Z"/><path d="M102.68,52.77a4.53,4.53,0,0,1-4.39,4.56A4.47,4.47,0,0,1,94,52.77a4.4,4.4,0,0,1,4.32-4.48A4.45,4.45,0,0,1,102.68,52.77Zm-6.94,13H101v42.48H95.74Z"/><path d="M147.54,101c-4.47,5.6-10.1,8.32-16.5,8.32-11.94,0-21-10.32-21-22.4s9.25-22.24,21.12-22.24c6.62,0,12.25,3,16.34,8.88V49.41h5.24v58.88h-5.24ZM115.47,87.09c0,9.2,6.94,17.28,16.11,17.28,8.4,0,16.26-6.56,16.26-17.12,0-9.84-7-17.28-16.18-17.28C122.26,70,115.47,78,115.47,87.09Z"/><path d="M170.89,52.77a4.53,4.53,0,0,1-4.4,4.56,4.47,4.47,0,0,1-4.31-4.56,4.39,4.39,0,0,1,4.31-4.48A4.46,4.46,0,0,1,170.89,52.77Zm-6.94,13h5.24v42.48H164Z"/><path d="M179.29,49.41h5.24v58.88h-5.24Z"/><path d="M3.49,0c9.18-.12,18.59,6.17,22.06,15.64a29.66,29.66,0,0,1,1.18,14.47,59.25,59.25,0,0,1-4.07,13.4c-1.74,4.17-3.66,8.08-4.8,12-.29,1-.53,2-.73,3-.11.5-.17,1-.26,1.48,0,.18,0,.34,0,.52v.59a18,18,0,0,0,1.59,5.52,70.08,70.08,0,0,0,6.31,11.2c1.21,1.81,2.49,3.59,3.8,5.33.65.87,1.34,1.72,2,2.56.35.41.7.82,1.06,1.21a9.69,9.69,0,0,0,1,1l-1,1.71c-1.71-.87-3.54-1.75-5.3-2.61L23.6,85.75a19,19,0,0,0-2.49-1,19.16,19.16,0,0,0-5.23-.64,12.07,12.07,0,0,0-4.73,1,7.76,7.76,0,0,0-3.26,2.78,8.38,8.38,0,0,0-1.38,4c-.25,3,.93,6.46,2.27,10.19s2.7,7.4,4.06,11.14,2.65,7.52,3.88,11.31A212.82,212.82,0,0,1,23,147.84l-.62.24a212.67,212.67,0,0,1-10.93-21.42c-3.25-7.29-6.32-14.62-9-22.27a59.82,59.82,0,0,1-1.84-6,20.9,20.9,0,0,1-.48-7,14.4,14.4,0,0,1,2.86-7,13.37,13.37,0,0,1,6.1-4.41,16.49,16.49,0,0,1,7-.77,20.7,20.7,0,0,1,6.45,1.65,21.73,21.73,0,0,1,2.89,1.63c.87.56,1.7,1.15,2.52,1.75,1.65,1.2,3.22,2.4,4.8,3.78l5.76,5-6.8-3.33a8.36,8.36,0,0,1-1.63-1.07c-.47-.36-.9-.73-1.34-1.11-.86-.76-1.67-1.55-2.47-2.35-1.61-1.61-3.13-3.29-4.58-5a65.25,65.25,0,0,1-7.79-11.37,22.89,22.89,0,0,1-2.4-7.12c0-.36-.07-.71-.09-1.08l0-1.14c.07-.6.11-1.22.21-1.82A31.26,31.26,0,0,1,12.37,54,104.26,104.26,0,0,1,17.1,41.21a52.84,52.84,0,0,0,3.67-12,27.6,27.6,0,0,0-.37-11.88A23.13,23.13,0,0,0,14.28,7.12,27.07,27.07,0,0,0,3.39.67Z"/></svg>