<svg id="web_fidil_logo_large" xmlns="http://www.w3.org/2000/svg" width="402.505" height="320.082" viewBox="0 0 402.505 320.082">
  <path id="Path_108" data-name="Path 108" d="M59.91,50.85h60.516v12.1H72.018v38.907h48.408v12.1H72.018v61.041H59.91Z" transform="translate(70.731 59.067)" fill="#fff"/>
  <path id="Path_109" data-name="Path 109" d="M112.937,57.974a9.833,9.833,0,0,1-9.577,9.857A9.7,9.7,0,0,1,94,57.974a9.551,9.551,0,0,1,9.424-9.684A9.661,9.661,0,0,1,112.937,57.974ZM97.8,86.073h11.475v91.821H97.8Z" transform="translate(111.009 56.094)" fill="#fff"/>
  <path id="Path_110" data-name="Path 110" d="M191.848,160.923c-9.751,12.1-22.034,17.984-36,17.984-26.048,0-45.812-22.307-45.812-48.418s20.179-48.072,46.074-48.072c14.442,0,26.724,6.485,35.646,19.194V49.41h11.431V176.68H191.761Zm-69.962-30.067c0,19.886,15.14,37.351,35.145,37.351,18.325,0,35.472-14.18,35.472-37.005,0-21.269-15.271-37.351-35.3-37.351C136.7,93.916,121.886,111.208,121.886,130.856Z" transform="translate(129.962 57.395)" fill="#fff"/>
  <path id="Path_111" data-name="Path 111" d="M181.182,57.974a9.833,9.833,0,0,1-9.6,9.857,9.7,9.7,0,0,1-9.4-9.857,9.442,9.442,0,0,1,2.673-6.775,9.491,9.491,0,0,1,16.328,6.775Zm-15.14,28.1h11.431v91.821H166.152Z" transform="translate(191.566 56.094)" fill="#fff"/>
  <path id="Path_112" data-name="Path 112" d="M179.29,49.41h11.431V176.68H179.29Z" transform="translate(211.784 57.395)" fill="#fff"/>
  <path id="Path_113" data-name="Path 113" d="M7.584,0C27.61-.257,48.139,13.339,55.709,33.808a63.552,63.552,0,0,1,2.574,31.277A127.2,127.2,0,0,1,49.4,94.05c-3.8,9.014-7.984,17.465-10.471,25.938-.633,2.162-1.156,4.323-1.593,6.485-.24,1.081-.371,2.162-.567,3.2v2.4A38.637,38.637,0,0,0,40.241,144a151.1,151.1,0,0,0,13.766,24.209c2.64,3.912,5.432,7.76,8.29,11.521,1.418,1.881,2.923,3.718,4.363,5.533.764.886,1.527,1.772,2.312,2.615a21.044,21.044,0,0,0,2.182,2.162l-2.182,3.7c-3.73-1.881-7.723-3.783-11.562-5.642l-5.956-2.745a41.672,41.672,0,0,0-5.432-2.162,42.164,42.164,0,0,0-11.409-1.383,26.539,26.539,0,0,0-10.319,2.162,16.888,16.888,0,0,0-7.112,6.009,18,18,0,0,0-3.011,8.646c-.545,6.485,2.029,13.963,4.952,22.026s5.89,16,8.857,24.079,5.781,16.255,8.464,24.447a456.651,456.651,0,0,1,13.7,50.385l-1.353.519a458.11,458.11,0,0,1-23.844-46.3c-7.09-15.757-13.787-31.6-19.634-48.137A128.42,128.42,0,0,1,1.3,212.674,44.773,44.773,0,0,1,.254,197.543a30.971,30.971,0,0,1,6.239-15.131A29.157,29.157,0,0,1,19.8,172.88a36.288,36.288,0,0,1,15.271-1.664,45.5,45.5,0,0,1,14.071,3.567,47.525,47.525,0,0,1,6.3,3.523c1.9,1.21,3.709,2.486,5.5,3.783,3.6,2.594,7.025,5.188,10.471,8.171l12.566,10.808-14.834-7.2a18.254,18.254,0,0,1-3.556-2.313c-1.025-.778-1.963-1.578-2.923-2.4-1.876-1.643-3.643-3.35-5.388-5.08-3.512-3.48-6.828-7.111-9.991-10.808a141,141,0,0,1-16.994-24.577,49.168,49.168,0,0,1-5.236-15.39c0-.778-.153-1.535-.2-2.334V128.5c.153-1.3.24-2.637.458-3.934a67.028,67.028,0,0,1,1.636-7.846A224.044,224.044,0,0,1,37.275,89.078,113.444,113.444,0,0,0,45.281,63.14a59.125,59.125,0,0,0-.807-25.679A49.91,49.91,0,0,0,31.123,15.392,59.17,59.17,0,0,0,7.366,1.45Z" transform="translate(-0.025 0.002)" fill="#fff"/>
</svg>
